{"title":"Darmiyaan (Jodi Breakers) - H.264 - 720p [HD] ~~~AbhinavRocks {{","uid":6950928,"size":41835664,"categoryP":"video","categoryS":"music_videos","magnet":"?xt=urn:btih:8ea0c715125e80b7274c75ed48cb6d31796a2de7&amp;dn=Darmiyaan+%28Jodi+Breakers%29+-+H.264+-+720p+%5BHD%5D+%7E%7E%7EAbhinavRocks+%7B%7B&amp;tr=udp%3A%2F%2Ftracker.openbittorrent.com%3A80&amp;tr=udp%3A%2F%2Fopen.demonii.com%3A1337&amp;tr=udp%3A%2F%2Ftracker.coppersurfer.tk%3A6969&amp;tr=udp%3A%2F%2Fexodus.desync.com%3A6969","seeders":1,"leechers":0,"uploader":"AbhiHKRG","files":6,"time":1326397814,"description":"Cover :: &lt;a href=&quot;\nhttp://i.minus.com/inMvpBFQWTvSp.png&quot; rel=&quot;nofollow&quot; target=&quot;_NEW&quot;&gt;\nhttp://i.minus.com/inMvpBFQWTvSp.png&lt;/a&gt;\n\n\nScreen ::\n &lt;a href=&quot;\nhttp://i.minus.com/iiiZGwVfg6FBf.png&quot; rel=&quot;nofollow&quot; target=&quot;_NEW&quot;&gt;\nhttp://i.minus.com/iiiZGwVfg6FBf.png&lt;/a&gt;\n &lt;a href=&quot;\nhttp://i.minus.com/iEEGuAC1X0a0R.png&quot; rel=&quot;nofollow&quot; target=&quot;_NEW&quot;&gt;\nhttp://i.minus.com/iEEGuAC1X0a0R.png&lt;/a&gt;\n &lt;a href=&quot;\nhttp://i.minus.com/ijyHA6VdddsPm.png&quot; rel=&quot;nofollow&quot; target=&quot;_NEW&quot;&gt;\nhttp://i.minus.com/ijyHA6VdddsPm.png&lt;/a&gt;\n &lt;a href=&quot;\nhttp://i.minus.com/ib0n2lJj6kbGxt.png&quot; rel=&quot;nofollow&quot; target=&quot;_NEW&quot;&gt;\nhttp://i.minus.com/ib0n2lJj6kbGxt.png&lt;/a&gt;\n &lt;a href=&quot;\nhttp://i.minus.com/iK51nkxbDUrSv.png&quot; rel=&quot;nofollow&quot; target=&quot;_NEW&quot;&gt;\nhttp://i.minus.com/iK51nkxbDUrSv.png&lt;/a&gt;\n &lt;a href=&quot;\nhttp://i.minus.com/ibeOojaSQkVq0P.png&quot; rel=&quot;nofollow&quot; target=&quot;_NEW&quot;&gt;\nhttp://i.minus.com/ibeOojaSQkVq0P.png&lt;/a&gt;\n &lt;a href=&quot;\nhttp://i.minus.com/idT61lgOPkPzX.png&quot; rel=&quot;nofollow&quot; target=&quot;_NEW&quot;&gt;\nhttp://i.minus.com/idT61lgOPkPzX.png&lt;/a&gt;\n &lt;a href=&quot;\nhttp://i.minus.com/ib17Wn3fYUUb0Z.png&quot; rel=&quot;nofollow&quot; target=&quot;_NEW&quot;&gt;\nhttp://i.minus.com/ib17Wn3fYUUb0Z.png&lt;/a&gt;\n &lt;a href=&quot;\nhttp://i.minus.com/iodZ8kXMUOeqc.png&quot; rel=&quot;nofollow&quot; target=&quot;_NEW&quot;&gt;\nhttp://i.minus.com/iodZ8kXMUOeqc.png&lt;/a&gt;\n\n\nGeneral ::\nFormat                           : AVI\nFormat/Info                      : Audio Video Interleave\nFile size                        : 39.9 MiB\nDuration                         : 2mn 34s\nOverall bit rate                 : 2 167 Kbps\n\n\nVideo Info ::\nID                               : 0\nFormat                           : AVC\nFormat/Info                      : Advanced Video Codec\nFormat profile                   : &lt;a class=&quot;__cf_email__&quot; href=&quot;/cdn-cgi/l/email-protection&quot; data-cfemail=&quot;1058797778505c253e21&quot;&gt;[email&amp;#160;protected]&lt;/a&gt;&lt;script cf-hash='f9e31' type=&quot;text/javascript&quot;&gt;\n/* &lt;![CDATA[ */!function(){try{var t=&quot;currentScript&quot;in document?document.currentScript:function(){for(var t=document.getElementsByTagName(&quot;script&quot;),e=t.length;e--;)if(t[e].getAttribute(&quot;cf-hash&quot;))return t[e]}();if(t&amp;&amp;t.previousSibling){var e,r,n,i,c=t.previousSibling,a=c.getAttribute(&quot;data-cfemail&quot;);if(a){for(e=&quot;&quot;,r=parseInt(a.substr(0,2),16),n=2;a.length-n;n+=2)i=parseInt(a.substr(n,2),16)^r,e+=String.fromCharCode(i);e=document.createTextNode(e),c.parentNode.replaceChild(e,c)}}}catch(u){}}();/* ]]&gt; */&lt;/script&gt;\nFormat settings, CABAC           : Yes\nFormat settings, ReFrames        : 2 frames\nCodec ID                         : H264\nDuration                         : 10s 0ms\nBit rate                         : 1 835 Kbps\nWidth                            : 1 280 pixels\nHeight                           : 544 pixels\nDisplay aspect ratio             : 2.35:1\nFrame rate                       : 30.000 fps\nColor space                      : YUV\nChroma subsampling               : 4:2:0\nBit depth                        : 8 bits\nScan type                        : Progressive\nBits/(Pixel*Frame)               : 0.088\nStream size                      : 33.8 MiB (85%)\n\n\nAudio Info ::\nID                               : 1\nFormat                           : MPEG Audio\nFormat version                   : Version 1\nFormat profile                   : Layer 3\nCodec ID                         : 55\nCodec ID/Hint                    : MP3\nDuration                         : 2mn 34s\nBit rate mode                    : Constant\nBit rate                         : 320 Kbps\nChannel(s)                       : 2 channels\nSampling rate                    : 44.1 KHz\nCompression mode                 : Lossy\nStream size                      : 5.89 MiB (15%)","torrent":{"xt":"urn:btih:8ea0c715125e80b7274c75ed48cb6d31796a2de7","amp;dn":"Darmiyaan+%28Jodi+Breakers%29+-+H.264+-+720p+%5BHD%5D+%7E%7E%7EAbhinavRocks+%7B%7B","amp;tr":["udp%3A%2F%2Ftracker.openbittorrent.com%3A80","udp%3A%2F%2Fopen.demonii.com%3A1337","udp%3A%2F%2Ftracker.coppersurfer.tk%3A6969","udp%3A%2F%2Fexodus.desync.com%3A6969"],"infoHash":"8ea0c715125e80b7274c75ed48cb6d31796a2de7","infoHashBuffer":{"type":"Buffer","data":[142,160,199,21,18,94,128,183,39,76,117,237,72,203,109,49,121,106,45,231]},"announce":[],"urlList":[]}}